<mxfile host="app.diagrams.net" modified="2022-11-14T04:14:48.916Z" agent="5.0 (Windows NT 10.0; Win64; x64) AppleWebKit/537.36 (KHTML, like Gecko) Chrome/107.0.0.0 Safari/537.36 Edg/107.0.1418.42" etag="Y5HHyAadtLyaJ2lacZ_I" version="20.5.3" type="github">
  <diagram id="iaJIwzh1-YziGCo10PUl" name="Page-1">
    <mxGraphModel dx="1858" dy="1032" grid="1" gridSize="10" guides="1" tooltips="1" connect="1" arrows="1" fold="1" page="1" pageScale="1" pageWidth="850" pageHeight="1100" math="0" shadow="0">
      <root>
        <mxCell id="0" />
        <mxCell id="1" parent="0" />
        <mxCell id="DsZEWx_L59FSOX30sTqH-1" value="&lt;span style=&quot;color: rgba(0, 0, 0, 0); font-family: monospace; font-size: 0px;&quot;&gt;%3CmxGraphModel%3E%3Croot%3E%3CmxCell%20id%3D%220%22%2F%3E%3CmxCell%20id%3D%221%22%20parent%3D%220%22%2F%3E%3CmxCell%20id%3D%222%22%20value%3D%22Price%22%20style%3D%22text%3Bhtml%3D1%3Balign%3Dcenter%3BverticalAlign%3Dmiddle%3Bresizable%3D0%3Bpoints%3D%5B%5D%3Bautosize%3D1%3BstrokeColor%3Dnone%3BfillColor%3Dnone%3BfontSize%3D20%3B%22%20vertex%3D%221%22%20parent%3D%221%22%3E%3CmxGeometry%20x%3D%22770%22%20y%3D%22780%22%20width%3D%2270%22%20height%3D%2240%22%20as%3D%22geometry%22%2F%3E%3C%2FmxCell%3E%3C%2Froot%3E%3C%2FmxGraphModel%3E&lt;/span&gt;" style="strokeWidth=1;shadow=0;dashed=0;align=left;html=1;shape=mxgraph.mockup.containers.browserWindow;rSize=0;strokeColor=#666666;mainText=,;recursiveResize=0;rounded=0;labelBackgroundColor=none;fontFamily=Verdana;fontSize=12" vertex="1" parent="1">
          <mxGeometry x="30" y="20" width="1470" height="1275" as="geometry" />
        </mxCell>
        <mxCell id="DsZEWx_L59FSOX30sTqH-2" value="Page 1" style="strokeWidth=1;shadow=0;dashed=0;align=center;html=1;shape=mxgraph.mockup.containers.anchor;fontSize=17;fontColor=#666666;align=left;" vertex="1" parent="DsZEWx_L59FSOX30sTqH-1">
          <mxGeometry x="60" y="12" width="110" height="26" as="geometry" />
        </mxCell>
        <mxCell id="DsZEWx_L59FSOX30sTqH-3" value="https://www.AutoQuotes.com" style="strokeWidth=1;shadow=0;dashed=0;align=center;html=1;shape=mxgraph.mockup.containers.anchor;rSize=0;fontSize=17;fontColor=#666666;align=left;" vertex="1" parent="DsZEWx_L59FSOX30sTqH-1">
          <mxGeometry x="130" y="60" width="250" height="26" as="geometry" />
        </mxCell>
        <mxCell id="DsZEWx_L59FSOX30sTqH-4" value="&lt;font style=&quot;font-size: 32px;&quot;&gt;Mechanic Shop Logo&lt;/font&gt;" style="text;html=1;points=[];align=left;verticalAlign=top;spacingTop=-4;fontSize=30;fontFamily=Verdana" vertex="1" parent="DsZEWx_L59FSOX30sTqH-1">
          <mxGeometry x="30" y="140" width="340" height="50" as="geometry" />
        </mxCell>
        <mxCell id="DsZEWx_L59FSOX30sTqH-5" value="" style="verticalLabelPosition=bottom;shadow=0;dashed=0;align=center;html=1;verticalAlign=top;strokeWidth=1;shape=mxgraph.mockup.markup.line;strokeColor=#999999;rounded=0;labelBackgroundColor=none;fillColor=#ffffff;fontFamily=Verdana;fontSize=12;fontColor=#000000;" vertex="1" parent="DsZEWx_L59FSOX30sTqH-1">
          <mxGeometry y="190" width="1470" height="20" as="geometry" />
        </mxCell>
        <mxCell id="DsZEWx_L59FSOX30sTqH-6" value="" style="verticalLabelPosition=bottom;shadow=0;dashed=0;align=center;html=1;verticalAlign=top;strokeWidth=1;shape=mxgraph.mockup.markup.line;strokeColor=#999999;rounded=0;labelBackgroundColor=none;fillColor=#ffffff;fontFamily=Verdana;fontSize=12;fontColor=#000000;" vertex="1" parent="DsZEWx_L59FSOX30sTqH-1">
          <mxGeometry y="1090" width="1470" height="20" as="geometry" />
        </mxCell>
        <mxCell id="DsZEWx_L59FSOX30sTqH-8" value="&lt;font style=&quot;font-size: 36px;&quot;&gt;2011 Honda Accord 2.4L - 2 Door&lt;/font&gt;" style="text;html=1;align=center;verticalAlign=middle;resizable=0;points=[];autosize=1;strokeColor=none;fillColor=none;" vertex="1" parent="DsZEWx_L59FSOX30sTqH-1">
          <mxGeometry x="30" y="240" width="560" height="60" as="geometry" />
        </mxCell>
        <mxCell id="DsZEWx_L59FSOX30sTqH-18" value="" style="strokeWidth=1;shadow=0;dashed=0;align=center;html=1;shape=mxgraph.mockup.containers.marginRect2;rectMarginTop=32;strokeColor=#666666;gradientColor=none;fontSize=20;" vertex="1" parent="DsZEWx_L59FSOX30sTqH-1">
          <mxGeometry x="20" y="350" width="1450" height="590" as="geometry" />
        </mxCell>
        <mxCell id="DsZEWx_L59FSOX30sTqH-19" value="&lt;font color=&quot;#ffffff&quot;&gt;Custom Quotes&lt;/font&gt;" style="strokeColor=#6c8ebf;fillColor=#2197FF;strokeWidth=1;shadow=0;dashed=0;align=center;html=1;shape=mxgraph.mockup.containers.rrect;rSize=0;fontSize=17;gradientColor=none;" vertex="1" parent="DsZEWx_L59FSOX30sTqH-18">
          <mxGeometry width="130" height="25" relative="1" as="geometry">
            <mxPoint x="10" as="offset" />
          </mxGeometry>
        </mxCell>
        <mxCell id="DsZEWx_L59FSOX30sTqH-20" value="&lt;font color=&quot;#121212&quot;&gt;Immediate Quotes&lt;/font&gt;" style="strokeWidth=1;shadow=0;dashed=0;align=center;html=1;shape=mxgraph.mockup.containers.rrect;rSize=0;fontSize=17;fontColor=#ffffff;strokeColor=#008cff;fillColor=#FFFFFF;" vertex="1" parent="DsZEWx_L59FSOX30sTqH-18">
          <mxGeometry width="150" height="25" relative="1" as="geometry">
            <mxPoint x="150" as="offset" />
          </mxGeometry>
        </mxCell>
        <mxCell id="DsZEWx_L59FSOX30sTqH-21" value="" style="strokeWidth=1;shadow=0;dashed=0;align=center;html=1;shape=mxgraph.mockup.containers.topButton;rSize=5;strokeColor=#008cff;fillColor=#008cff;gradientColor=none;resizeWidth=1;movable=0;deletable=1;fontSize=20;" vertex="1" parent="DsZEWx_L59FSOX30sTqH-18">
          <mxGeometry width="1310" height="7" relative="1" as="geometry">
            <mxPoint y="25" as="offset" />
          </mxGeometry>
        </mxCell>
        <mxCell id="DsZEWx_L59FSOX30sTqH-22" value="" style="rounded=0;whiteSpace=wrap;html=1;fontSize=20;" vertex="1" parent="DsZEWx_L59FSOX30sTqH-18">
          <mxGeometry x="45" y="61.64179104477612" width="1020" height="264.17910447761193" as="geometry" />
        </mxCell>
        <mxCell id="DsZEWx_L59FSOX30sTqH-23" value="" style="verticalLabelPosition=bottom;shadow=0;dashed=0;align=center;html=1;verticalAlign=top;strokeWidth=1;shape=mxgraph.mockup.forms.splitter;strokeColor=#999999;fontSize=20;" vertex="1" parent="DsZEWx_L59FSOX30sTqH-18">
          <mxGeometry x="45" y="114.4776119402985" width="1020" height="8.805970149253731" as="geometry" />
        </mxCell>
        <mxCell id="DsZEWx_L59FSOX30sTqH-24" value="&lt;font style=&quot;font-size: 20px;&quot;&gt;#&lt;/font&gt;" style="text;html=1;align=center;verticalAlign=middle;resizable=0;points=[];autosize=1;strokeColor=none;fillColor=none;fontSize=20;" vertex="1" parent="DsZEWx_L59FSOX30sTqH-18">
          <mxGeometry x="55" y="70.44776119402985" width="30" height="40" as="geometry" />
        </mxCell>
        <mxCell id="DsZEWx_L59FSOX30sTqH-25" value="" style="verticalLabelPosition=bottom;shadow=0;dashed=0;align=center;html=1;verticalAlign=top;strokeWidth=1;shape=mxgraph.mockup.markup.line;strokeColor=#999999;direction=north;fontSize=20;" vertex="1" parent="DsZEWx_L59FSOX30sTqH-18">
          <mxGeometry x="85" y="61.64179104477612" width="20" height="264.17910447761193" as="geometry" />
        </mxCell>
        <mxCell id="DsZEWx_L59FSOX30sTqH-26" value="Service/Item Description" style="text;html=1;align=center;verticalAlign=middle;resizable=0;points=[];autosize=1;strokeColor=none;fillColor=none;fontSize=20;" vertex="1" parent="DsZEWx_L59FSOX30sTqH-18">
          <mxGeometry x="115" y="70.44776119402985" width="240" height="40" as="geometry" />
        </mxCell>
        <mxCell id="DsZEWx_L59FSOX30sTqH-27" value="" style="verticalLabelPosition=bottom;shadow=0;dashed=0;align=center;html=1;verticalAlign=top;strokeWidth=1;shape=mxgraph.mockup.markup.line;strokeColor=#999999;direction=north;fontSize=20;" vertex="1" parent="DsZEWx_L59FSOX30sTqH-18">
          <mxGeometry x="540" y="61.64179104477612" width="20" height="264.17910447761193" as="geometry" />
        </mxCell>
        <mxCell id="DsZEWx_L59FSOX30sTqH-28" value="Unit Price" style="text;html=1;align=center;verticalAlign=middle;resizable=0;points=[];autosize=1;strokeColor=none;fillColor=none;fontSize=20;" vertex="1" parent="DsZEWx_L59FSOX30sTqH-18">
          <mxGeometry x="560" y="70.44776119402985" width="110" height="40" as="geometry" />
        </mxCell>
        <mxCell id="DsZEWx_L59FSOX30sTqH-29" value="" style="verticalLabelPosition=bottom;shadow=0;dashed=0;align=center;html=1;verticalAlign=top;strokeWidth=1;shape=mxgraph.mockup.markup.line;strokeColor=#999999;direction=north;fontSize=20;" vertex="1" parent="DsZEWx_L59FSOX30sTqH-18">
          <mxGeometry x="665" y="61.64179104477612" width="20" height="264.17910447761193" as="geometry" />
        </mxCell>
        <mxCell id="DsZEWx_L59FSOX30sTqH-30" value="Quantity" style="text;html=1;align=center;verticalAlign=middle;resizable=0;points=[];autosize=1;strokeColor=none;fillColor=none;fontSize=20;" vertex="1" parent="DsZEWx_L59FSOX30sTqH-18">
          <mxGeometry x="670" y="70.44776119402985" width="100" height="40" as="geometry" />
        </mxCell>
        <mxCell id="DsZEWx_L59FSOX30sTqH-31" value="" style="verticalLabelPosition=bottom;shadow=0;dashed=0;align=center;html=1;verticalAlign=top;strokeWidth=1;shape=mxgraph.mockup.markup.line;strokeColor=#999999;direction=north;fontSize=20;" vertex="1" parent="DsZEWx_L59FSOX30sTqH-18">
          <mxGeometry x="757.5" y="61.64179104477612" width="20" height="264.17910447761193" as="geometry" />
        </mxCell>
        <mxCell id="DsZEWx_L59FSOX30sTqH-32" value="Discount" style="text;html=1;align=center;verticalAlign=middle;resizable=0;points=[];autosize=1;strokeColor=none;fillColor=none;fontSize=20;" vertex="1" parent="DsZEWx_L59FSOX30sTqH-18">
          <mxGeometry x="770" y="70.44776119402985" width="100" height="40" as="geometry" />
        </mxCell>
        <mxCell id="DsZEWx_L59FSOX30sTqH-33" value="" style="verticalLabelPosition=bottom;shadow=0;dashed=0;align=center;html=1;verticalAlign=top;strokeWidth=1;shape=mxgraph.mockup.markup.line;strokeColor=#999999;direction=north;fontSize=20;" vertex="1" parent="DsZEWx_L59FSOX30sTqH-18">
          <mxGeometry x="865" y="61.64179104477612" width="20" height="264.17910447761193" as="geometry" />
        </mxCell>
        <mxCell id="DsZEWx_L59FSOX30sTqH-34" value="Final Price" style="text;html=1;align=center;verticalAlign=middle;resizable=0;points=[];autosize=1;strokeColor=none;fillColor=none;fontSize=20;" vertex="1" parent="DsZEWx_L59FSOX30sTqH-18">
          <mxGeometry x="905" y="70.44776119402985" width="120" height="40" as="geometry" />
        </mxCell>
        <mxCell id="DsZEWx_L59FSOX30sTqH-35" value="1" style="text;html=1;align=center;verticalAlign=middle;resizable=0;points=[];autosize=1;strokeColor=none;fillColor=none;fontSize=20;" vertex="1" parent="DsZEWx_L59FSOX30sTqH-18">
          <mxGeometry x="55" y="167.3134328358209" width="30" height="40" as="geometry" />
        </mxCell>
        <mxCell id="DsZEWx_L59FSOX30sTqH-36" value="Front Brakes Replacement" style="text;html=1;align=left;verticalAlign=middle;resizable=0;points=[];autosize=1;strokeColor=none;fillColor=none;fontSize=20;" vertex="1" parent="DsZEWx_L59FSOX30sTqH-18">
          <mxGeometry x="115" y="220.1492537313433" width="260" height="40" as="geometry" />
        </mxCell>
        <mxCell id="DsZEWx_L59FSOX30sTqH-37" value="$80.69" style="text;html=1;align=center;verticalAlign=middle;resizable=0;points=[];autosize=1;strokeColor=none;fillColor=none;fontSize=20;" vertex="1" parent="DsZEWx_L59FSOX30sTqH-18">
          <mxGeometry x="575" y="132.08955223880596" width="80" height="40" as="geometry" />
        </mxCell>
        <mxCell id="DsZEWx_L59FSOX30sTqH-38" value="$120.69" style="text;html=1;align=center;verticalAlign=middle;resizable=0;points=[];autosize=1;strokeColor=none;fillColor=none;fontSize=20;" vertex="1" parent="DsZEWx_L59FSOX30sTqH-18">
          <mxGeometry x="565" y="176.11940298507463" width="100" height="40" as="geometry" />
        </mxCell>
        <mxCell id="DsZEWx_L59FSOX30sTqH-39" value="$125.00" style="text;html=1;align=center;verticalAlign=middle;resizable=0;points=[];autosize=1;strokeColor=none;fillColor=none;fontSize=20;" vertex="1" parent="DsZEWx_L59FSOX30sTqH-18">
          <mxGeometry x="565" y="220.1492537313433" width="100" height="40" as="geometry" />
        </mxCell>
        <mxCell id="DsZEWx_L59FSOX30sTqH-40" value="1" style="text;html=1;align=center;verticalAlign=middle;resizable=0;points=[];autosize=1;strokeColor=none;fillColor=none;fontSize=20;" vertex="1" parent="DsZEWx_L59FSOX30sTqH-18">
          <mxGeometry x="705" y="132.08955223880596" width="30" height="40" as="geometry" />
        </mxCell>
        <mxCell id="DsZEWx_L59FSOX30sTqH-41" value="2" style="text;html=1;align=center;verticalAlign=middle;resizable=0;points=[];autosize=1;strokeColor=none;fillColor=none;fontSize=20;" vertex="1" parent="DsZEWx_L59FSOX30sTqH-18">
          <mxGeometry x="705" y="176.11940298507463" width="30" height="40" as="geometry" />
        </mxCell>
        <mxCell id="DsZEWx_L59FSOX30sTqH-42" value="2" style="text;html=1;align=center;verticalAlign=middle;resizable=0;points=[];autosize=1;strokeColor=none;fillColor=none;fontSize=20;" vertex="1" parent="DsZEWx_L59FSOX30sTqH-18">
          <mxGeometry x="705" y="220.1492537313433" width="30" height="40" as="geometry" />
        </mxCell>
        <mxCell id="DsZEWx_L59FSOX30sTqH-43" value="$0.00" style="text;html=1;align=center;verticalAlign=middle;resizable=0;points=[];autosize=1;strokeColor=none;fillColor=none;fontSize=20;" vertex="1" parent="DsZEWx_L59FSOX30sTqH-18">
          <mxGeometry x="790" y="132.08955223880596" width="70" height="40" as="geometry" />
        </mxCell>
        <mxCell id="DsZEWx_L59FSOX30sTqH-44" value="$20.69" style="text;html=1;align=center;verticalAlign=middle;resizable=0;points=[];autosize=1;strokeColor=none;fillColor=none;fontSize=20;" vertex="1" parent="DsZEWx_L59FSOX30sTqH-18">
          <mxGeometry x="780" y="176.11940298507463" width="80" height="40" as="geometry" />
        </mxCell>
        <mxCell id="DsZEWx_L59FSOX30sTqH-45" value="$0.00" style="text;html=1;align=center;verticalAlign=middle;resizable=0;points=[];autosize=1;strokeColor=none;fillColor=none;fontSize=20;" vertex="1" parent="DsZEWx_L59FSOX30sTqH-18">
          <mxGeometry x="790" y="220.1492537313433" width="70" height="40" as="geometry" />
        </mxCell>
        <mxCell id="DsZEWx_L59FSOX30sTqH-46" value="$80.69" style="text;html=1;align=center;verticalAlign=middle;resizable=0;points=[];autosize=1;strokeColor=none;fillColor=none;fontSize=20;" vertex="1" parent="DsZEWx_L59FSOX30sTqH-18">
          <mxGeometry x="925" y="132.08955223880596" width="80" height="40" as="geometry" />
        </mxCell>
        <mxCell id="DsZEWx_L59FSOX30sTqH-47" value="$100.00" style="text;html=1;align=center;verticalAlign=middle;resizable=0;points=[];autosize=1;strokeColor=none;fillColor=none;fontSize=20;" vertex="1" parent="DsZEWx_L59FSOX30sTqH-18">
          <mxGeometry x="915" y="176.11940298507463" width="100" height="40" as="geometry" />
        </mxCell>
        <mxCell id="DsZEWx_L59FSOX30sTqH-48" value="$125.00" style="text;html=1;align=center;verticalAlign=middle;resizable=0;points=[];autosize=1;strokeColor=none;fillColor=none;fontSize=20;" vertex="1" parent="DsZEWx_L59FSOX30sTqH-18">
          <mxGeometry x="915" y="220.1492537313433" width="100" height="40" as="geometry" />
        </mxCell>
        <mxCell id="DsZEWx_L59FSOX30sTqH-49" value="&lt;span style=&quot;color: rgb(0, 0, 0); font-size: 20px;&quot;&gt;Front Brake Pads - OE+ Series&lt;/span&gt;" style="strokeWidth=1;shadow=0;dashed=0;align=center;html=1;shape=mxgraph.mockup.forms.comboBox;strokeColor=#999999;fillColor=#ddeeff;align=left;fillColor2=#aaddff;mainText=;fontColor=#666666;fontSize=17;spacingLeft=3;" vertex="1" parent="DsZEWx_L59FSOX30sTqH-18">
          <mxGeometry x="115" y="138.13" width="415" height="27.91" as="geometry" />
        </mxCell>
        <mxCell id="DsZEWx_L59FSOX30sTqH-50" value="&lt;span style=&quot;color: rgb(0, 0, 0); font-size: 20px;&quot;&gt;Front Brake Rotors - Economic Series&lt;/span&gt;" style="strokeWidth=1;shadow=0;dashed=0;align=center;html=1;shape=mxgraph.mockup.forms.comboBox;strokeColor=#999999;fillColor=#ddeeff;align=left;fillColor2=#aaddff;mainText=;fontColor=#666666;fontSize=17;spacingLeft=3;" vertex="1" parent="DsZEWx_L59FSOX30sTqH-18">
          <mxGeometry x="115" y="180.9" width="415" height="35.22" as="geometry" />
        </mxCell>
        <mxCell id="DsZEWx_L59FSOX30sTqH-52" value="" style="verticalLabelPosition=bottom;shadow=0;dashed=0;align=center;html=1;verticalAlign=top;strokeWidth=1;shape=mxgraph.mockup.markup.line;strokeColor=#999999;fontSize=20;fillColor=#FF0000;" vertex="1" parent="DsZEWx_L59FSOX30sTqH-18">
          <mxGeometry x="45" y="268.5820895522388" width="1020" height="17.611940298507463" as="geometry" />
        </mxCell>
        <mxCell id="DsZEWx_L59FSOX30sTqH-53" value="2" style="text;html=1;align=center;verticalAlign=middle;resizable=0;points=[];autosize=1;strokeColor=none;fillColor=none;fontSize=20;" vertex="1" parent="DsZEWx_L59FSOX30sTqH-18">
          <mxGeometry x="55" y="286.1940298507463" width="30" height="40" as="geometry" />
        </mxCell>
        <mxCell id="DsZEWx_L59FSOX30sTqH-54" value="Price" style="text;html=1;align=right;verticalAlign=middle;resizable=0;points=[];autosize=1;strokeColor=none;fillColor=none;fontSize=20;" vertex="1" parent="DsZEWx_L59FSOX30sTqH-18">
          <mxGeometry x="802.5" y="325.82089552238807" width="70" height="40" as="geometry" />
        </mxCell>
        <mxCell id="DsZEWx_L59FSOX30sTqH-55" value="Tax" style="text;html=1;align=right;verticalAlign=middle;resizable=0;points=[];autosize=1;strokeColor=none;fillColor=none;fontSize=20;" vertex="1" parent="DsZEWx_L59FSOX30sTqH-18">
          <mxGeometry x="822.5" y="361.04477611940297" width="50" height="40" as="geometry" />
        </mxCell>
        <mxCell id="DsZEWx_L59FSOX30sTqH-56" value="Total Price" style="text;html=1;align=right;verticalAlign=middle;resizable=0;points=[];autosize=1;strokeColor=none;fillColor=none;fontSize=20;" vertex="1" parent="DsZEWx_L59FSOX30sTqH-18">
          <mxGeometry x="752.5" y="396.2686567164179" width="120" height="40" as="geometry" />
        </mxCell>
        <mxCell id="DsZEWx_L59FSOX30sTqH-57" value="$305.69" style="text;html=1;align=left;verticalAlign=middle;resizable=0;points=[];autosize=1;strokeColor=none;fillColor=none;fontSize=20;" vertex="1" parent="DsZEWx_L59FSOX30sTqH-18">
          <mxGeometry x="897.5" y="325.82089552238807" width="100" height="40" as="geometry" />
        </mxCell>
        <mxCell id="DsZEWx_L59FSOX30sTqH-58" value="$40" style="text;html=1;align=left;verticalAlign=middle;resizable=0;points=[];autosize=1;strokeColor=none;fillColor=none;fontSize=20;" vertex="1" parent="DsZEWx_L59FSOX30sTqH-18">
          <mxGeometry x="897.5" y="361.04477611940297" width="60" height="40" as="geometry" />
        </mxCell>
        <mxCell id="DsZEWx_L59FSOX30sTqH-59" value="$345.69" style="text;html=1;align=left;verticalAlign=middle;resizable=0;points=[];autosize=1;strokeColor=none;fillColor=none;fontSize=20;" vertex="1" parent="DsZEWx_L59FSOX30sTqH-18">
          <mxGeometry x="897.5" y="396.2686567164179" width="100" height="40" as="geometry" />
        </mxCell>
        <mxCell id="DsZEWx_L59FSOX30sTqH-67" value="&lt;font color=&quot;#0f0f0f&quot;&gt;Book an Appointment&lt;/font&gt;" style="strokeWidth=1;shadow=0;dashed=0;align=center;html=1;shape=mxgraph.mockup.buttons.button;strokeColor=#666666;fontColor=#ffffff;mainText=;buttonStyle=round;fontSize=17;fontStyle=1;fillColor=#66FF66;whiteSpace=wrap;" vertex="1" parent="DsZEWx_L59FSOX30sTqH-18">
          <mxGeometry x="812.5" y="490" width="230" height="70" as="geometry" />
        </mxCell>
        <mxCell id="DsZEWx_L59FSOX30sTqH-84" value="Delete" style="strokeWidth=1;shadow=0;dashed=0;align=center;html=1;shape=mxgraph.mockup.buttons.button;strokeColor=#666666;fontColor=#ffffff;mainText=;buttonStyle=round;fontSize=17;fontStyle=1;fillColor=#FF0000;whiteSpace=wrap;" vertex="1" parent="DsZEWx_L59FSOX30sTqH-18">
          <mxGeometry x="1090" y="226.9422388059702" width="100" height="26.417910447761194" as="geometry" />
        </mxCell>
        <mxCell id="DsZEWx_L59FSOX30sTqH-68" value="&lt;h3&gt;Contact Details&lt;/h3&gt;" style="strokeWidth=1;shadow=0;dashed=0;align=center;html=1;shape=mxgraph.mockup.text.textBox;fontColor=#666666;align=left;fontSize=17;spacingLeft=4;spacingTop=-3;strokeColor=#666666;mainText=" vertex="1" parent="DsZEWx_L59FSOX30sTqH-1">
          <mxGeometry x="170" y="1115" width="160" height="30" as="geometry" />
        </mxCell>
        <mxCell id="DsZEWx_L59FSOX30sTqH-69" value="&lt;div style=&quot;text-align: center;&quot;&gt;&lt;span style=&quot;font-size: 15px; background-color: initial;&quot;&gt;Email Address: someEmail@gmail.com&lt;/span&gt;&lt;/div&gt;&lt;font style=&quot;font-size: 15px;&quot;&gt;&lt;div style=&quot;text-align: center;&quot;&gt;&lt;span style=&quot;background-color: initial;&quot;&gt;Phone Number: (437) 975-6985&lt;/span&gt;&lt;/div&gt;&lt;div style=&quot;text-align: center;&quot;&gt;&lt;span style=&quot;background-color: initial;&quot;&gt;Address: 517 Maple Road, North York, Ontario&lt;/span&gt;&lt;/div&gt;&lt;div style=&quot;text-align: center;&quot;&gt;&lt;span style=&quot;background-color: initial;&quot;&gt;Opening Hours:&lt;/span&gt;&lt;/div&gt;&lt;span style=&quot;white-space: pre;&quot;&gt;&lt;div style=&quot;text-align: center;&quot;&gt;&lt;span style=&quot;background-color: initial;&quot;&gt; &lt;/span&gt;&lt;span style=&quot;background-color: initial; white-space: normal;&quot;&gt;Monday to Friday - 8 to 5&lt;/span&gt;&lt;/div&gt;&lt;/span&gt;&lt;span style=&quot;white-space: pre;&quot;&gt;&lt;div style=&quot;text-align: center;&quot;&gt;&lt;span style=&quot;background-color: initial;&quot;&gt; &lt;/span&gt;&lt;span style=&quot;background-color: initial; white-space: normal;&quot;&gt;Weekends - 9 to 5&lt;/span&gt;&lt;/div&gt;&lt;/span&gt;&lt;/font&gt;" style="text;spacingTop=-5;whiteSpace=wrap;html=1;align=left;fontSize=12;fontFamily=Helvetica;fillColor=none;strokeColor=none;" vertex="1" parent="DsZEWx_L59FSOX30sTqH-1">
          <mxGeometry x="80" y="1155" width="360" height="100" as="geometry" />
        </mxCell>
        <mxCell id="DsZEWx_L59FSOX30sTqH-70" value="" style="verticalLabelPosition=bottom;shadow=0;dashed=0;align=center;html=1;verticalAlign=top;strokeWidth=1;shape=mxgraph.mockup.markup.line;strokeColor=#999999;direction=north;fontSize=32;" vertex="1" parent="DsZEWx_L59FSOX30sTqH-1">
          <mxGeometry x="430" y="1105" width="20" height="170" as="geometry" />
        </mxCell>
        <mxCell id="DsZEWx_L59FSOX30sTqH-71" value="Powered By: Auto Quotes Co." style="text;html=1;align=center;verticalAlign=middle;resizable=0;points=[];autosize=1;strokeColor=none;fillColor=none;fontSize=15;" vertex="1" parent="DsZEWx_L59FSOX30sTqH-1">
          <mxGeometry x="1130" y="1245" width="220" height="30" as="geometry" />
        </mxCell>
        <mxCell id="DsZEWx_L59FSOX30sTqH-72" value="&lt;h3&gt;Terms of Service&lt;/h3&gt;" style="strokeWidth=1;shadow=0;dashed=0;align=center;html=1;shape=mxgraph.mockup.text.textBox;fontColor=#666666;align=left;fontSize=17;spacingLeft=4;spacingTop=-3;strokeColor=#666666;mainText=" vertex="1" parent="DsZEWx_L59FSOX30sTqH-1">
          <mxGeometry x="820" y="1115" width="175" height="30" as="geometry" />
        </mxCell>
        <mxCell id="DsZEWx_L59FSOX30sTqH-73" value="Privacy Policy&lt;br&gt;Return Policy&lt;br&gt;Terms and Conditions" style="text;html=1;align=center;verticalAlign=top;resizable=0;points=[];autosize=1;strokeColor=none;fillColor=none;fontSize=15;" vertex="1" parent="DsZEWx_L59FSOX30sTqH-1">
          <mxGeometry x="822.5" y="1155" width="170" height="70" as="geometry" />
        </mxCell>
        <mxCell id="DsZEWx_L59FSOX30sTqH-74" value="" style="verticalLabelPosition=bottom;verticalAlign=top;html=1;shape=mxgraph.basic.polygon;polyCoords=[[0.25,0],[0.75,0],[1,0.25],[1,0.75],[0.75,1],[0.25,1],[0,0.75],[0,0.25]];polyline=0;fontSize=15;" vertex="1" parent="DsZEWx_L59FSOX30sTqH-1">
          <mxGeometry x="1190" y="1125" width="100" height="100" as="geometry" />
        </mxCell>
        <mxCell id="DsZEWx_L59FSOX30sTqH-75" value="Auto Quotes&lt;br&gt;Logo" style="text;html=1;align=center;verticalAlign=middle;resizable=0;points=[];autosize=1;strokeColor=none;fillColor=none;fontSize=15;" vertex="1" parent="DsZEWx_L59FSOX30sTqH-1">
          <mxGeometry x="1185" y="1150" width="110" height="50" as="geometry" />
        </mxCell>
        <mxCell id="DsZEWx_L59FSOX30sTqH-76" value="" style="verticalLabelPosition=bottom;shadow=0;dashed=0;align=center;html=1;verticalAlign=top;strokeWidth=1;shape=mxgraph.mockup.markup.line;strokeColor=#999999;direction=north;fontSize=15;" vertex="1" parent="DsZEWx_L59FSOX30sTqH-1">
          <mxGeometry x="710" y="1105" width="20" height="170" as="geometry" />
        </mxCell>
        <mxCell id="DsZEWx_L59FSOX30sTqH-77" value="&lt;h3&gt;Navigation&lt;/h3&gt;" style="strokeWidth=1;shadow=0;dashed=0;align=center;html=1;shape=mxgraph.mockup.text.textBox;fontColor=#666666;align=left;fontSize=17;spacingLeft=4;spacingTop=-3;strokeColor=#666666;mainText=" vertex="1" parent="DsZEWx_L59FSOX30sTqH-1">
          <mxGeometry x="525" y="1115" width="110" height="30" as="geometry" />
        </mxCell>
        <mxCell id="DsZEWx_L59FSOX30sTqH-78" value="" style="verticalLabelPosition=bottom;shadow=0;dashed=0;align=center;html=1;verticalAlign=top;strokeWidth=1;shape=mxgraph.mockup.markup.line;strokeColor=#999999;direction=north;fontSize=15;" vertex="1" parent="DsZEWx_L59FSOX30sTqH-1">
          <mxGeometry x="1060" y="1105" width="20" height="170" as="geometry" />
        </mxCell>
        <mxCell id="DsZEWx_L59FSOX30sTqH-79" value="Get a Quote&lt;br&gt;About us" style="text;html=1;align=center;verticalAlign=middle;resizable=0;points=[];autosize=1;strokeColor=none;fillColor=none;fontSize=15;" vertex="1" parent="DsZEWx_L59FSOX30sTqH-1">
          <mxGeometry x="525" y="1155" width="110" height="50" as="geometry" />
        </mxCell>
        <mxCell id="DsZEWx_L59FSOX30sTqH-80" value="" style="shape=image;html=1;verticalAlign=top;verticalLabelPosition=bottom;labelBackgroundColor=#ffffff;imageAspect=0;aspect=fixed;image=https://cdn3.iconfinder.com/data/icons/essential-rounded/64/Rounded-31-128.png" vertex="1" parent="DsZEWx_L59FSOX30sTqH-1">
          <mxGeometry x="1350" y="140.5" width="44" height="44" as="geometry" />
        </mxCell>
        <mxCell id="DsZEWx_L59FSOX30sTqH-81" value="" style="shape=image;html=1;verticalAlign=top;verticalLabelPosition=bottom;labelBackgroundColor=#ffffff;imageAspect=0;aspect=fixed;image=https://cdn3.iconfinder.com/data/icons/user-interface-169/32/login-128.png" vertex="1" parent="DsZEWx_L59FSOX30sTqH-1">
          <mxGeometry x="1400" y="140" width="45" height="45" as="geometry" />
        </mxCell>
        <mxCell id="DsZEWx_L59FSOX30sTqH-82" value="UserName" style="text;strokeColor=none;fillColor=none;html=1;fontSize=24;fontStyle=1;verticalAlign=middle;align=center;" vertex="1" parent="DsZEWx_L59FSOX30sTqH-1">
          <mxGeometry x="1210" y="142.5" width="120" height="40" as="geometry" />
        </mxCell>
      </root>
    </mxGraphModel>
  </diagram>
</mxfile>
